Coordinates
version=1
nRows=5
nColumns=63
inDegrees=yes

Units are S.I. units (second, meters, Newtons, ...)
If the header above contains a line with 'inDegrees', this indicates whether rotational values are in degrees (yes) or radians (no).

endheader
time	pelvis_tilt	pelvis_list	pelvis_rotation	pelvis_tx	pelvis_ty	pelvis_tz	hip_flexion_r	hip_adduction_r	hip_rotation_r	knee_angle_r	knee_angle_r_beta	ankle_angle_r	subtalar_angle_r	mtp_angle_r	hip_flexion_l	hip_adduction_l	hip_rotation_l	knee_angle_l	knee_angle_l_beta	ankle_angle_l	subtalar_angle_l	mtp_angle_l	L5_S1_Flex_Ext	L5_S1_Lat_Bending	L5_S1_axial_rotation	L4_L5_Flex_Ext	L4_L5_Lat_Bending	L4_L5_axial_rotation	L3_L4_Flex_Ext	L3_L4_Lat_Bending	L3_L4_axial_rotation	L2_L3_Flex_Ext	L2_L3_Lat_Bending	L2_L3_axial_rotation	L1_L2_Flex_Ext	L1_L2_Lat_Bending	L1_L2_axial_rotation	L1_T12_Flex_Ext	L1_T12_Lat_Bending	L1_T12_axial_rotation	Abs_r3	Abs_r2	Abs_r1	Abs_t1	Abs_t2	neck_flexion	neck_bending	neck_rotation	arm_flex_r	arm_add_r	arm_rot_r	elbow_flex_r	pro_sup_r	wrist_flex_r	wrist_dev_r	arm_flex_l	arm_add_l	arm_rot_l	elbow_flex_l	pro_sup_l	wrist_flex_l	wrist_dev_l
      7.50000000	     -0.13469191	     -9.11605836	     -2.28123843	     -1.61362207	      0.87173982	      0.27986438	     -2.11565316	      8.40429382	     -3.69034156	      4.07110827	      0.07105424	      3.43850505	     -6.62854344	      0.00000000	     -2.70807072	    -10.60656517	     -7.32620125	      4.41435386	      0.07704501	      2.34804786	    -17.44200127	      0.00000000	     -0.00151531	      0.46597286	      0.18525286	     -0.00281408	      0.61974391	      0.19683116	     -0.00248950	      1.13296642	      0.19683116	     -0.00173185	      1.13296642	      0.16209625	     -0.00140712	      0.95021186	      0.15051795	     -0.00086585	      0.72179197	      0.13893964	     -0.01082371	      5.27117823	      1.03032081	      0.00000000	      0.00000000	     -0.00000000	      0.00000000	     -0.00000000	     -5.25292345	     -0.95393061	     -2.13372577	     27.82314464	     35.42344415	      0.00000000	      5.00000014	     -5.30560408	     11.66726870	    -42.19215154	     47.32398310	     34.33140214	      0.00000000	      5.00000014
      7.53333333	     -0.07879389	     -9.07834719	     -2.22905933	     -1.61323846	      0.87187326	      0.28000753	     -2.25287835	      8.33871041	     -4.73598357	      3.95924421	      0.06910185	      3.79621751	     -5.03852444	      0.00000000	     -2.71704321	    -10.59360426	     -6.82697189	      4.37379529	      0.07633713	      2.23390826	    -17.62473911	      0.00000000	     -0.00169205	      0.45912488	      0.19468024	     -0.00314231	      0.61063610	      0.20684775	     -0.00277987	      1.11631624	      0.20684775	     -0.00193384	      1.11631624	      0.17034521	     -0.00157124	      0.93624746	      0.15817769	     -0.00096684	      0.71118445	      0.14601018	     -0.01208614	      5.19371251	      1.08275309	      0.00000000	      0.00000000	     -0.00000000	      0.00000000	     -0.00000000	     -5.29727888	     -0.89234600	     -4.01570521	     28.21987620	     35.90136739	      0.00000000	      5.00000014	     -5.34947275	     11.71759900	    -42.38253845	     47.47642375	     35.34799547	      0.00000000	      5.00000014
      7.56666667	     -0.04540491	     -9.08956492	     -2.10457589	     -1.61302075	      0.87167971	      0.28010946	     -2.32272987	      8.42230232	     -4.59428573	      3.92261806	      0.06846260	      3.95846117	     -5.45496913	      0.00000000	     -2.74167187	    -10.67018022	     -6.57947744	      4.29028280	      0.07487956	      2.16635951	    -17.64564734	      0.00000000	     -0.00162141	      0.45953516	      0.19106350	     -0.00301112	      0.61118176	      0.20300497	     -0.00266381	      1.11731378	      0.20300497	     -0.00185311	      1.11731378	      0.16718056	     -0.00150564	      0.93708409	      0.15523909	     -0.00092647	      0.71181996	      0.14329762	     -0.01158156	      5.19835360	      1.06263785	      0.00000000	      0.00000000	     -0.00000000	      0.00000000	     -0.00000000	     -5.36034114	     -0.28037226	     -9.14728324	     28.97143894	     34.47540977	      0.00000000	      5.00000014	     -5.36322412	     11.76334196	    -42.37984440	     47.62709299	     35.08433419	      0.00000000	      5.00000014
      7.60000000	     -0.02241004	     -9.13351606	     -2.07421213	     -1.61280584	      0.87131779	      0.28018755	     -2.38694093	      8.58814942	     -3.84639204	      3.87982088	      0.06771565	      4.01406911	     -6.71364686	      0.00000000	     -2.87902450	    -10.78523207	     -7.00677175	      4.12729782	      0.07203494	      2.07651733	    -17.44509166	      0.00000000	     -0.00085759	      0.46470309	      0.20174573	     -0.00159262	      0.61805511	      0.21435484	     -0.00140893	      1.12987909	      0.21435484	     -0.00098014	      1.12987909	      0.17652751	     -0.00079635	      0.94762254	      0.16391841	     -0.00049002	      0.71982509	      0.15130930	     -0.00612565	      5.25681430	      1.12204922	      0.00000000	      0.00000000	     -0.00000000	      0.00000000	     -0.00000000	     -5.37107668	     -0.09126045	    -12.06445211	     29.62180463	     33.40854889	      0.00000000	      5.00000014	     -5.36782407	     11.86302270	    -42.48206283	     47.84094003	     34.61500180	      0.00000000	      5.00000014
      7.63333333	     -0.02315800	     -9.12379886	     -1.96445153	     -1.61291206	      0.87093431	      0.27986922	     -2.41729548	      8.68599757	     -3.94347305	      3.79810343	      0.06628941	      4.28342178	     -6.88588643	      0.00000000	     -2.91823226	    -10.87302967	     -7.21825923	      4.10706022	      0.07168172	      2.05543041	    -17.52253343	      0.00000000	     -0.00145990	      0.46384198	      0.18885910	     -0.00271119	      0.61690984	      0.20066279	     -0.00239847	      1.12778540	      0.20066279	     -0.00166852	      1.12778540	      0.16525171	     -0.00135567	      0.94586657	      0.15344802	     -0.00083419	      0.71849123	      0.14164432	     -0.01042794	      5.24707328	      1.05037764	      0.00000000	      0.00000000	     -0.00000000	      0.00000000	     -0.00000000	     -5.18007450	     -0.49401715	    -12.18979907	     29.73896071	     33.38255104	      0.00000000	      5.00000014	     -5.30426165	     11.86411555	    -42.47641114	     47.90316281	     34.60729892	      0.00000000	      5.00000014
